<?xml version="1.0" encoding="UTF-8" standalone="no"?>
<svg width="48px" height="62px" viewBox="0 0 48 62" version="1.1" xmlns="http://www.w3.org/2000/svg" xmlns:xlink="http://www.w3.org/1999/xlink" xmlns:sketch="http://www.bohemiancoding.com/sketch/ns">
    <!-- Generator: Sketch 3.3.3 (12081) - http://www.bohemiancoding.com/sketch -->
    <title>Artboard 1</title>
    <desc>Created with Sketch.</desc>
    <defs></defs>
    <g id="Page-1" stroke="none" stroke-width="1" fill="none" fill-rule="evenodd" sketch:type="MSPage">
        <g id="Artboard-1" sketch:type="MSArtboardGroup">
            <g id="Group" sketch:type="MSLayerGroup">
                <path d="M11,17 L18,10" id="Line" stroke="#FFFFFF" stroke-width="4" stroke-linecap="square" sketch:type="MSShapeGroup"></path>
                <path d="M25.5,42.5 L35,33" id="Line-Copy-2" stroke="#FFFFFF" stroke-width="4" stroke-linecap="square" sketch:type="MSShapeGroup"></path>
                <path d="M24.5,56 L24.5,21" id="Line-Copy-3" stroke="#FFFFFF" stroke-width="4" stroke-linecap="round" stroke-linejoin="round" sketch:type="MSShapeGroup"></path>
                <path d="M37,14 L24.5,21" id="Line-Copy-4" stroke="#FFFFFF" stroke-width="4" stroke-linecap="round" sketch:type="MSShapeGroup"></path>
                <path d="M42,60 L24.5,56" id="Line-Copy-5" stroke="#FFFFFF" stroke-width="4" stroke-linecap="round" sketch:type="MSShapeGroup"></path>
                <path d="M11,23 L23,37" id="Line-Copy" stroke="#FFFFFF" stroke-width="4" stroke-linecap="square" sketch:type="MSShapeGroup"></path>
                <circle id="Oval-1" fill="#FFFFFF" sketch:type="MSShapeGroup" cx="24.5" cy="38.5" r="7.5"></circle>
                <path d="M6,26 C9.3137085,26 12,23.3137085 12,20 C12,16.6862915 9.3137085,14 6,14 C2.6862915,14 0,16.6862915 0,20 C0,23.3137085 2.6862915,26 6,26 Z M6,23 C7.65685425,23 9,21.6568542 9,20 C9,18.3431458 7.65685425,17 6,17 C4.34314575,17 3,18.3431458 3,20 C3,21.6568542 4.34314575,23 6,23 Z" id="Oval-1-Copy" fill="#FFFFFF" sketch:type="MSShapeGroup"></path>
                <path d="M41,18 C44.8659932,18 48,14.8659932 48,11 C48,7.13400675 44.8659932,4 41,4 C37.1340068,4 34,7.13400675 34,11 C34,14.8659932 37.1340068,18 41,18 Z M41.5,14 C43.4329966,14 45,12.4329966 45,10.5 C45,8.56700338 43.4329966,7 41.5,7 C39.5670034,7 38,8.56700338 38,10.5 C38,12.4329966 39.5670034,14 41.5,14 Z" id="Oval-1-Copy-2" fill="#FFFFFF" sketch:type="MSShapeGroup"></path>
                <path d="M21.5,11 C24.5375661,11 27,8.53756612 27,5.5 C27,2.46243388 24.5375661,0 21.5,0 C18.4624339,0 16,2.46243388 16,5.5 C16,8.53756612 18.4624339,11 21.5,11 Z M21.5,9 C23.4329966,9 25,7.43299662 25,5.5 C25,3.56700338 23.4329966,2 21.5,2 C19.5670034,2 18,3.56700338 18,5.5 C18,7.43299662 19.5670034,9 21.5,9 Z" id="Oval-1-Copy-3" fill="#FFFFFF" sketch:type="MSShapeGroup"></path>
                <path d="M39,34 C41.7614237,34 44,31.7614237 44,29 C44,26.2385763 41.7614237,24 39,24 C36.2385763,24 34,26.2385763 34,29 C34,31.7614237 36.2385763,34 39,34 Z M39,32 C40.6568542,32 42,30.6568542 42,29 C42,27.3431458 40.6568542,26 39,26 C37.3431458,26 36,27.3431458 36,29 C36,30.6568542 37.3431458,32 39,32 Z" id="Oval-1-Copy-4" fill="#FFFFFF" sketch:type="MSShapeGroup"></path>
            </g>
        </g>
    </g>
</svg>